<svg xmlns="http://www.w3.org/2000/svg" viewBox="0 0 675.74 80.54"><g id="Layer_2" data-name="Layer 2"><g id="Layer_5" data-name="Layer 5"><path d="M56.4,21.45Q30.8,45.77,27.57,54.55,12.42,79.29,5.71,79.28H3.81A1.69,1.69,0,0,1,1.9,77.37q0-2.84,20-28.53,2.67-8.39,10.46-17.11Q34.83,30.5,49.45,7.94V5.1q-8.34,0-45.64,42.8L0,50.74V49.8Q17.82,26.49,46.61,1.29h4.75q1.32.06,3.81,4.75v3.8Q47.55,20,47.55,25.08V26h1l2.78-2.23q5-4.69,18.13-15.85h6.65l1,4.77Q69.18,31.36,62.78,39.35h.94Q92.87,12.71,98.91,12.71h1q1.47,0,3.81,3.78,0,7.77-23.79,37.09-7.62,16.07-7.61,18.08v1h3.8Q84.93,68,86.54,66l1,1.87Q76.38,78.34,63.72,78.34l-1.9-2.87v-.94q4.5-20,10.46-20,0-2.37,19-26.63l2.87-9.52v-.94q-10.72,3.84-39,35.19Q40,75.26,34.25,79.28H29.47a1.68,1.68,0,0,1-1.9-1.91V73.56L38.06,61.2c.89,0,1.84-1,2.84-2.84v-1q4.68-4.45,10.46-15.2,15-15.67,15.2-20l1.91-1.91q1.91-7.62,1.9-9.49h-.94Z"/><path d="M112,50q2.73,3,2.73,4.54Q121.23,50,123,50l1.82,2.72L112,72v1.82h.91q6-.55,13.51-9l1.46,1.14q-.43,4.48-6,7.09-.81,2.64-13.59,5.36c-2.42-1.84-3.63-3.66-3.63-5.48h-1.85q-8.64,6.39-9.14,6.39H89.21Q81,79.25,81,71,98,50,112,50ZM90.12,74.68A6.89,6.89,0,0,1,91,77.43q18.85-9.87,20.09-20.1V52.76q-8.46,0-15.52,13.71Q94,66.47,90.12,74.68Z"/><path d="M147.27,79.39h-4.48a5.55,5.55,0,0,1-3.49-5.21h-.85a41.7,41.7,0,0,1-9.58,6.09h-2.61c-.89,0-2.06-1.16-3.48-3.48V75.06q0-13.49,25.25-25.28h2.64l3.45,1.75,34-46.17c0-1.15,1.16-1.73,3.49-1.73l1.72,2.61V8.85q-27.82,38.3-46.14,61l-.88,4.34v1.73q2.12,0,2.49,1.14,9.77-8.4,14.27-14.15l1.32,2.4-1.44,2.26q-10.09,12.89-15.82,12.16Zm-17.52-7v2.64h2.61a45,45,0,0,0,18.28-20L148,53.26q-7.17,0-13.07,12.22Q133.85,65.48,129.75,72.42Z"/><path d="M172.85,76.55q-1.09,1.56-10.81,2.73h-1.91q-1.32-.06-3.81-4.78Q157.49,70,164,59.24q8.26-10.49,16.2-10.49c1.92.63,2.87,2.53,2.87,5.71v1.91q-5,6.95-16.23,13.36l-1,1.9v1.91l2.87,2.87,1.93-.94h.29q15.21-11.34,15.85-11.34c1-.35,1.25.29.82,1.93A47.94,47.94,0,0,1,172.85,76.55Zm-5.07-10.63q11.46-4.16,11.45-12.39c-1.29,0-1.93-.33-1.93-1Q167.77,54.58,167.78,65.92Z"/><path d="M247.17,50.1c1.18.19,1.76.79,1.76,1.78v2.64q-9.72,13.92-9.72,17.7v.88h.9q5,0,13.36-8.5h.88v2.64q-4,5-16,12H233q-3.51-1.82-3.51-4.43,0-.81,3.51-5.3v-.88c-3,2.37-4.48,3.35-4.48,3l-.88-1.79A124.59,124.59,0,0,1,247.17,50.1Zm22.09-33.58.88,1.76V21c-.58,1.76-2.35,2.63-5.3,2.63a1.56,1.56,0,0,1-1.79-1.75Q265.14,16.52,269.26,16.52Z"/><path d="M270.48,49.92q4.89,0,4.89,8.82l11.75-7.85a.86.86,0,0,1,1,1l2-1H293c.87,0,2.51,1.63,4.89,4.89q0,4.83-7.82,12.75l1,4.89q5.69-1.76,9.44-7.8t4.45-1q-11.4,14.67-18.78,14.68h-1q-5.07,0-5.86-2.93V73.42q0-3.57,8.79-16.64v-2q-7.56,0-26.42,23.5l-3.9,1a7.14,7.14,0,0,1-1-2.93q9.78-15.91,9.78-20.57v-1a1.73,1.73,0,0,0-2.23.59q-15,19-14.26,12.8Q263.71,48.28,270.48,49.92Z"/><path d="M485,0a8.54,8.54,0,0,1,2.28,5.3Q485.65,12.15,469.91,40q-7.41,8.46-14.33,23.41-5.29,7-5.3,9.81V74A72.51,72.51,0,0,0,468,60.64h.76q0,4.35-8.18,11.15t-17.13,7.49h-2.26q-1.78,0-2.26-6,3-8.31,3-10.57l-1.52.76a5.92,5.92,0,0,0-3-.76,5.61,5.61,0,0,1-2.26.76.67.67,0,0,0-.76-.76q0-4.52,3.78-4.52.8,0,3-3.77l-.76-3.78a3.06,3.06,0,0,1-.76-2.26,161.21,161.21,0,0,0-15.09,12.07q-29.16,18.11-52.85,18.11-15.24,0-21.13-8.3l-3.78-11.33v-6q7.68-8.26,12.08-9.81c3,3.4,4.54,5.66,4.54,6.79L362,59.65q0,12.83,17.38,15.85a34.34,34.34,0,0,1,4.54-.76h2.25L411,65.68q15.83-8.73,38.5-32.46Q475.65,0,485,0ZM445,42.28c1.54.07,3.05,2.1,4.51,6.06q8.3-4.83,16.61-20.39Q468,26.87,481.25,6.06V3.78h-.76A267.74,267.74,0,0,0,445,42.28Z"/><path d="M479.93,50.13h2.81q6.51,0,6.51,5.56,3.42,0,8.41-3.72h3.72A8.11,8.11,0,0,1,506,59.41Q518.41,52,522.73,52q2.79.59,2.79,7.44V62.2q-1,2.55-10.23,11.16v2.55H519q6.51-1.53,12.22-9.64h.91l.94,1.87q-9,11.82-21.51,12.4c-2.11-.49-4-2-5.57-4.4V74.27Q508.15,67,512.51,65q0-1.85,2.78-6.5h-.91q-5.65,1.94-16.72,14.88a17,17,0,0,1-8,5.83l-.94-1.88V75.47l8.94-15.12a6.77,6.77,0,0,1-.94-2.81h-.94q-5.07,0-24.2,21.39H468.8q-2.34,0-2.79-3.72,7.42-10.67,7.42-12.08a4.47,4.47,0,0,0,2.93-4.65l-1.76.23Q473,59.18,461.18,71a.82.82,0,0,1-.94-.91Q458.49,66.76,479.93,50.13Z"/><path d="M544.2,76.55q-1.1,1.56-10.82,2.73h-1.9q-1.32-.06-3.81-4.78,1.17-4.55,7.65-15.26,8.26-10.49,16.2-10.49,2.87.95,2.87,5.71v1.91q-5,6.95-16.23,13.36l-1,1.9v1.91l2.87,2.87,1.94-.94h.29q15.21-11.34,15.85-11.34c1-.35,1.25.29.82,1.93A48.06,48.06,0,0,1,544.2,76.55Zm-5.07-10.63q11.45-4.16,11.45-12.39c-1.29,0-1.93-.33-1.93-1Q539.13,54.58,539.13,65.92Z"/><path d="M566.83,49.34h1.75c.84,0,1.72.87,2.64,2.63l.59,6.18c1.81,0,2.72.56,2.72,1.56l-1,3.72Q566.12,70,567.41,74h.88q3.19,0,13.57-6.59l.52.41q.06,2-2.66,4.43-12.26,7.6-18.49,7a5.27,5.27,0,0,1-2.93-5.63q1.17-5.5,9.29-11.75L565.45,58l-9.2,10.31L555,67.18l.7-1.7A79.47,79.47,0,0,0,566.83,49.34Z"/><path d="M599.1,50.1c1.17.19,1.75.79,1.75,1.78v2.64q-9.72,13.92-9.72,17.7v.88H592q5,0,13.36-8.5h.87v2.64q-4,5-16,12H585q-3.53-1.82-3.52-4.43,0-.81,3.52-5.3v-.88c-3,2.37-4.49,3.35-4.49,3l-.88-1.79A124.62,124.62,0,0,1,599.1,50.1Zm22.09-33.58.88,1.76V21c-.59,1.76-2.36,2.63-5.31,2.63A1.56,1.56,0,0,1,615,21.83Q617.05,16.52,621.19,16.52Z"/><path d="M630.28,71.1q-13.71,8.18-23.46,8.18-4.55-1.26-4.54-6.39V71.07q0-10.27,25.51-21.85h3.64q2.07,0,2.72,4.54Q632.42,62,626,62q-1.23-7.26-2.73-7.26-6.24,0-10.93,19.1h5.48q3.84,0,13.1-5.6c2.62-2.3,4.27-3.31,5-3h.91v.9a18.8,18.8,0,0,1-6.39,5.07Z"/><path d="M659.87,50q2.71,3,2.72,4.54,6.48-4.55,8.2-4.54l1.82,2.72L659.87,72v1.82h.9q6-.55,13.51-9l1.46,1.14q-.43,4.48-5.94,7.09-.82,2.64-13.6,5.36c-2.42-1.84-3.63-3.66-3.63-5.48h-1.85q-8.64,6.39-9.14,6.39H637q-8.24,0-8.23-8.21Q645.84,50,659.87,50ZM638,74.68a6.73,6.73,0,0,1,.91,2.75q18.87-9.87,20.1-20.1V52.76q-8.48,0-15.53,13.71Q641.86,66.47,638,74.68Z"/></g></g></svg>